<?xml version="1.0" encoding="UTF-8"?>
<svg version="1.1" xmlns="http://www.w3.org/2000/svg" width="1000" height="1000">
<path d="M0 0 C330 0 660 0 1000 0 C1000 330 1000 660 1000 1000 C670 1000 340 1000 0 1000 C0 670 0 340 0 0 Z " fill="#7D5B3A" transform="translate(0,0)"/>
<path d="M0 0 C7.00499668 3.62701049 12.81612286 8.44470645 18.60839844 13.74804688 C20.17087549 15.17234568 21.75700181 16.56491923 23.3515625 17.953125 C38.90553007 31.63485573 49.71236272 46.19933421 51.1875 67.1875 C51.32156912 71.94206899 51.31416693 76.69351777 51.30102539 81.44970703 C51.30074275 82.86003111 51.30090276 84.27035533 51.3014679 85.68067932 C51.30175286 89.4795659 51.29590501 93.27842041 51.28889394 97.07729959 C51.28261008 101.05843852 51.28205264 105.03957832 51.28086853 109.02072144 C51.27776998 116.54628849 51.26957662 124.07184088 51.25951904 131.5974015 C51.24831189 140.17062424 51.24283589 148.74384771 51.23782361 157.31707597 C51.22739267 174.94056063 51.20906568 192.56402521 51.1875 210.1875 C37.3275 210.1875 23.4675 210.1875 9.1875 210.1875 C9.1875 195.3375 9.1875 180.4875 9.1875 165.1875 C-4.3425 165.1875 -17.8725 165.1875 -31.8125 165.1875 C-31.8125 180.0375 -31.8125 194.8875 -31.8125 210.1875 C-45.3425 210.1875 -58.8725 210.1875 -72.8125 210.1875 C-72.857742 191.11521439 -72.89454442 172.0429726 -72.91612434 152.97064686 C-72.92641302 144.11395654 -72.94042703 135.25730207 -72.96337891 126.40063477 C-72.98338682 118.67626552 -72.99623392 110.95192224 -73.00067699 103.2275278 C-73.0032719 99.14198157 -73.00932021 95.05650962 -73.02396011 90.97098732 C-73.03766132 87.11573539 -73.04169765 83.26058746 -73.03871536 79.40531349 C-73.03925997 77.9997806 -73.04316207 76.59424378 -73.05091095 75.18873215 C-73.11577011 62.80383487 -73.14695137 50.62718662 -65.8125 40.1875 C-65.32652344 39.48109375 -64.84054688 38.7746875 -64.33984375 38.046875 C-50.90557572 20.05291235 -24.68801049 -11.34609563 0 0 Z " fill="#C1B17F" transform="translate(281.8125,390.8125)"/>
<path d="M0 0 C10.12797137 6.25247212 15.95441626 20.49783978 18.671875 31.66796875 C19.09571133 33.54552408 19.51811374 35.42396237 19.88623047 37.31323242 C20.17886033 38.81309092 20.49858397 40.30777001 20.83642578 41.7980957 C22.54981094 49.90987996 22.52449109 57.843057 22.421875 66.10546875 C22.380625 70.82859375 22.339375 75.55171875 22.296875 80.41796875 C35.826875 80.41796875 49.356875 80.41796875 63.296875 80.41796875 C63.296875 54.67796875 63.296875 28.93796875 63.296875 2.41796875 C76.826875 2.41796875 90.356875 2.41796875 104.296875 2.41796875 C104.296875 71.71796875 104.296875 141.01796875 104.296875 212.41796875 C90.766875 212.41796875 77.236875 212.41796875 63.296875 212.41796875 C63.296875 180.73796875 63.296875 149.05796875 63.296875 116.41796875 C49.766875 116.41796875 36.236875 116.41796875 22.296875 116.41796875 C22.296875 148.09796875 22.296875 179.77796875 22.296875 212.41796875 C8.436875 212.41796875 -5.423125 212.41796875 -19.703125 212.41796875 C-19.72294434 207.86056885 -19.74276367 203.30316895 -19.76318359 198.60766602 C-19.83009745 183.54814804 -19.90763818 168.48869863 -19.99065208 153.42926121 C-20.04072275 144.29896778 -20.08716623 135.16868309 -20.125 126.03833008 C-20.15799438 118.07809652 -20.19786654 110.11793183 -20.24591506 102.15777439 C-20.27110615 97.9449593 -20.29290906 93.73218945 -20.30646896 89.51931953 C-20.31935664 85.54911813 -20.34148247 81.57907248 -20.37050819 77.60895729 C-20.37953179 76.15661561 -20.38526192 74.70424888 -20.38733864 73.25188065 C-20.41586618 56.32219949 -24.27094189 41.84724786 -35.078125 28.48046875 C-36.703125 26.41796875 -36.703125 26.41796875 -36.703125 23.41796875 C-35.08935547 21.95092773 -35.08935547 21.95092773 -32.8203125 20.4140625 C-31.98894775 19.84236328 -31.15758301 19.27066406 -30.30102539 18.68164062 C-29.40246826 18.07900391 -28.50391113 17.47636719 -27.578125 16.85546875 C-25.74005878 15.60538125 -23.90282367 14.35407089 -22.06640625 13.1015625 C-21.15584473 12.48265137 -20.2452832 11.86374023 -19.30712891 11.22607422 C-16.97001824 9.60328765 -14.69347145 7.93107481 -12.43359375 6.203125 C-11.80662598 5.72883057 -11.1796582 5.25453613 -10.53369141 4.76586914 C-9.38077958 3.88693705 -8.23786386 2.99468785 -7.10693359 2.08764648 C-4.4595684 0.09776154 -3.31827718 -0.71448454 0 0 Z " fill="#C1B17F" transform="translate(686.703125,388.58203125)"/>
<path d="M0 0 C10.54068203 5.94709051 15.97415434 21.00850261 19.16796875 32.10620117 C19.55480898 33.83275757 19.92844615 35.56229549 20.29296875 37.29370117 C20.47214844 38.13860107 20.65132812 38.98350098 20.8359375 39.85400391 C22.46015571 48.44602665 22.52515013 56.84583119 22.41796875 65.54370117 C22.40790724 66.98249694 22.39878706 68.42129962 22.390625 69.86010742 C22.36888935 73.3381187 22.33453908 76.81586362 22.29296875 80.29370117 C24.2153301 80.16400014 26.1371063 80.02560655 28.05859375 79.88354492 C29.12883789 79.80740967 30.19908203 79.73127441 31.30175781 79.65283203 C37.99047858 78.84977063 41.25139092 75.61304198 45.54296875 70.60620117 C53.40206411 60.24372601 54.3576346 46.93325304 55.85546875 34.35620117 C55.98115234 33.36813477 56.10683594 32.38006836 56.23632812 31.36206055 C57.40769731 21.64153612 57.77442036 12.14612057 58.29296875 2.29370117 C72.15296875 2.29370117 86.01296875 2.29370117 100.29296875 2.29370117 C100.29296875 13.03572312 100.03904309 22.94701975 98.60546875 33.48120117 C98.47200546 34.47644302 98.47200546 34.47644302 98.33584595 35.49179077 C93.65341059 70.1128222 93.65341059 70.1128222 84.29296875 80.29370117 C83.54273438 81.1625293 82.7925 82.03135742 82.01953125 82.92651367 C79.82290095 85.42965053 77.57806576 87.8714126 75.29296875 90.29370117 C74.76058594 90.86733398 74.22820312 91.4409668 73.6796875 92.03198242 C72.59725725 93.16550083 71.45269806 94.2394018 70.29296875 95.29370117 C69.63296875 95.29370117 68.97296875 95.29370117 68.29296875 95.29370117 C68.29296875 95.95370117 68.29296875 96.61370117 68.29296875 97.29370117 C69.16344849 97.67957397 69.16344849 97.67957397 70.05151367 98.07324219 C81.66597623 104.3972481 93.86065337 119.15891144 97.79296875 131.74682617 C100.21194155 141.02292571 100.89867447 150.66103771 101.91796875 160.16870117 C102.13596763 162.12842029 102.35471247 164.08805657 102.57421875 166.04760742 C104.29918575 181.57559043 105.29296875 196.58978065 105.29296875 212.29370117 C91.43296875 212.29370117 77.57296875 212.29370117 63.29296875 212.29370117 C63.00421875 207.13745117 62.71546875 201.98120117 62.41796875 196.66870117 C61.63678173 183.18196415 60.71856495 169.73008967 59.29296875 156.29370117 C59.22110352 155.57182617 59.14923828 154.84995117 59.07519531 154.10620117 C57.7900296 141.40852708 55.40283278 130.03895679 45.85546875 120.98120117 C38.34286346 116.03387574 31.52053051 116.90887196 22.29296875 116.29370117 C22.29296875 147.97370117 22.29296875 179.65370117 22.29296875 212.29370117 C8.43296875 212.29370117 -5.42703125 212.29370117 -19.70703125 212.29370117 C-19.72685059 207.68095215 -19.74666992 203.06820312 -19.76708984 198.31567383 C-19.83402146 183.06856789 -19.91156221 167.8215295 -19.99455833 152.57450294 C-20.04461599 143.33101673 -20.09105956 134.08753908 -20.12890625 124.84399414 C-20.16191423 116.78450222 -20.20179375 108.72507813 -20.24982131 100.66566122 C-20.27499897 96.40083528 -20.29680574 92.13605384 -20.31037521 87.87117386 C-20.32327522 83.85090328 -20.34541388 79.83078595 -20.37441444 75.81060028 C-20.38342853 74.34094025 -20.3891659 72.87125558 -20.39124489 71.40156937 C-20.40980272 60.2679873 -20.88310319 50.47180763 -26.45703125 40.66870117 C-26.80830078 40.02843994 -27.15957031 39.38817871 -27.52148438 38.72851562 C-29.913431 34.4541591 -32.54194315 30.48727805 -35.67578125 26.71166992 C-36.70703125 25.29370117 -36.70703125 25.29370117 -36.70703125 23.29370117 C-34.77026367 21.72485352 -34.77026367 21.72485352 -32.0625 19.87963867 C-31.07443359 19.20030273 -30.08636719 18.5209668 -29.06835938 17.82104492 C-27.49731445 16.75563477 -27.49731445 16.75563477 -25.89453125 15.66870117 C-23.86635748 14.28189345 -21.83901155 12.89387424 -19.8125 11.50463867 C-18.8023584 10.81982422 -17.7922168 10.13500977 -16.75146484 9.42944336 C-14.68403631 7.97909333 -12.65580166 6.47155758 -10.66650391 4.91577148 C-9.70663574 4.16650391 -8.74676758 3.41723633 -7.7578125 2.64526367 C-6.90485596 1.95513184 -6.05189941 1.265 -5.1730957 0.55395508 C-2.70703125 -0.70629883 -2.70703125 -0.70629883 0 0 Z " fill="#C1B17F" transform="translate(526.70703125,388.706298828125)"/>
<path d="M0 0 C17.29358753 9.44320898 34.67977888 25.44776775 40.96875 44.49609375 C41.390625 47.09375 41.390625 47.09375 40.96875 49.49609375 C39.046875 51.2421875 39.046875 51.2421875 36.21875 52.93359375 C35.14625 53.60261719 34.07375 54.27164063 32.96875 54.9609375 C32.35 55.34620605 31.73125 55.73147461 31.09375 56.12841797 C26.71083666 58.94931417 22.47778713 61.99293623 18.21875 64.99609375 C16.45319754 66.2357804 14.68757804 67.47537158 12.921875 68.71484375 C11.6040339 69.64173834 10.28627214 70.56874582 8.96875 71.49609375 C6.77225914 69.29960289 5.79026455 67.0864013 4.50756836 64.2902832 C-0.54178282 53.39484652 -7.93044391 41.04649679 -19.03125 35.49609375 C-24.02730844 34.43135998 -27.87133865 35.06317907 -32.28125 37.62109375 C-36.29957226 40.2484583 -40.3684109 43.65645463 -41.49365234 48.47705078 C-41.66658829 50.67146088 -41.66526717 52.79645742 -41.59375 54.99609375 C-41.61018555 56.09630859 -41.61018555 56.09630859 -41.62695312 57.21875 C-41.55757178 62.38997297 -40.48162178 65.4540623 -37.03125 69.49609375 C-34.57383457 71.49284298 -34.57383457 71.49284298 -31.65625 73.12109375 C-31.10517578 73.44899902 -30.55410156 73.7769043 -29.98632812 74.11474609 C-25.50033603 76.74599923 -20.90817774 79.17693435 -16.3215332 81.62670898 C31.96098521 107.48525262 31.96098521 107.48525262 38.76171875 125.609375 C42.33751671 139.50458989 41.10056956 156.20038076 34.71875 169.00390625 C25.59136405 183.88776857 1.35623085 205.12043632 -16.03125 209.49609375 C-31.41956816 211.59083863 -43.95797403 204.37666136 -55.84375 195.36328125 C-68.22189511 185.4951489 -80.91018507 173.39162991 -85.03125 157.49609375 C-84.76012999 154.82670341 -84.36278357 153.79845003 -82.36401367 151.97558594 C-81.64963135 151.50282227 -80.93524902 151.03005859 -80.19921875 150.54296875 C-79.40555908 150.00953857 -78.61189941 149.4761084 -77.79418945 148.92651367 C-76.94429443 148.3719751 -76.09439941 147.81743652 -75.21875 147.24609375 C-74.36176514 146.67415283 -73.50478027 146.10221191 -72.62182617 145.51293945 C-70.09794401 143.83090467 -67.56498171 142.16323803 -65.03125 140.49609375 C-63.72028283 139.62139522 -62.41026165 138.74527575 -61.1015625 137.8671875 C-58.41718471 136.06794627 -55.7275089 134.27745442 -53.03125 132.49609375 C-50.44652186 133.78845782 -50.34238126 134.78541967 -49.28125 137.43359375 C-45.76963646 145.52945914 -41.44903335 152.34164287 -35.53125 158.87109375 C-34.85533813 159.62096558 -34.85533813 159.62096558 -34.16577148 160.38598633 C-28.68158909 166.31715273 -28.68158909 166.31715273 -21.28515625 168.625 C-15.38220767 167.3827249 -10.2141966 166.07343245 -6.03125 161.49609375 C-4.65195542 159.17172697 -3.89745195 157.0946996 -3.03125 154.49609375 C-2.70125 153.50609375 -2.37125 152.51609375 -2.03125 151.49609375 C-1.64035341 145.70536991 -1.32654757 139.77026348 -4.03125 134.49609375 C-5.34174546 133.78558416 -6.68277739 133.13158084 -8.03125 132.49609375 C-9.77576013 131.45971022 -11.51961174 130.42217515 -13.2578125 129.37524414 C-20.87254283 124.79695883 -28.61836059 120.59828373 -36.53125 116.55859375 C-50.38116214 109.43365957 -64.13740824 101.8274392 -75.03125 90.49609375 C-75.80855469 89.71105469 -75.80855469 89.71105469 -76.6015625 88.91015625 C-84.89456991 79.12738703 -84.9279073 63.69221627 -84.20703125 51.59179688 C-82.82098864 35.06708887 -72.00221957 24.65451328 -60.03125 14.49609375 C-40.54427517 -1.96722276 -25.0489587 -12.42764059 0 0 Z " fill="#C1B17F" transform="translate(439.03125,394.50390625)"/>
<path d="M0 0 C6.70112657 4.2350087 13.05698103 11.59126965 16 19 C17.25939759 26.42949548 17.12716773 33.82543355 17.09765625 41.34375 C17.09578788 42.72237089 17.09436596 44.10099246 17.09336853 45.47961426 C17.08957635 49.083149 17.07977478 52.68664252 17.06866455 56.29016113 C17.05837896 59.97728915 17.05380064 63.66442412 17.04882812 67.3515625 C17.03868164 74.56774456 17.01910167 81.7838139 17 89 C3.47 89 -10.06 89 -24 89 C-24.02102493 81.20909592 -24.04105449 73.41829583 -24.05175018 65.627388 C-24.0570098 61.99856846 -24.06402747 58.36977265 -24.07543945 54.7409668 C-24.08638044 51.23964137 -24.09230037 47.73833882 -24.09487724 44.2369976 C-24.09759827 42.26468526 -24.10539217 40.292382 -24.11329651 38.32008362 C-24.11418804 23.91280923 -22.61042568 14.53828665 -12.1875 3.875 C-8.2254192 0.08518358 -5.60596801 -0.72335071 0 0 Z " fill="#7D5B3A" transform="translate(274,431)"/>
</svg>
